<svg xmlns="http://www.w3.org/2000/svg" xmlns:xlink="http://www.w3.org/1999/xlink" viewBox="0 0 272.98 273.03"><defs><style>.cls-1{fill:none;}.cls-2{fill:#fff;}.cls-3{clip-path:url(#clip-path);}</style><clipPath id="clip-path" transform="translate(-13.51 -19.44)"><path class="cls-1" d="M116.58,276.09s30.65,7.85,60.5,2.63c20.54-15.37,29.69-39.12,29.69-39.12l-19.29-51.43L164,197.36s-14.38,13.76-14.68,13.77S115,192.53,115,192.53,100.87,261.73,116.58,276.09Z"/></clipPath></defs><g id="Illustration"><g id="Responsibility"><polygon class="cls-2" points="4.02 243.67 5.07 253.72 10.4 253.65 10.32 242.93 4.02 243.67"/><path d="M24.21,268.86v-.69l0-4.08v-1.71a.33.33,0,0,0-.12-.25.31.31,0,0,0-.26-.08l-6.3.73a.34.34,0,0,0-.29.37l.1.94.54,5.18,0,.38,0,.4.33,3.15a.33.33,0,0,0,.33.29h0l5.33-.06a.34.34,0,0,0,.33-.34ZM18.59,270l-.05-.39L18,264.09l-.07-.69,5.6-.65v1.34l0,4v.66l0,4-4.7.05-.25-2.4Z" transform="translate(-13.51 -19.44)"/><polygon class="cls-2" points="51.83 241.89 56.87 252.8 62 252.8 58.67 241.09 51.83 241.89"/><path d="M75.83,272.15l-1.22-4.27-.09-.33-.09-.31-.89-3.11-1-3.68a.33.33,0,0,0-.36-.24L65.3,261a.35.35,0,0,0-.25.17.31.31,0,0,0,0,.31l1.36,2.95,1.78,3.84.14.31.15.31,1.61,3.5a.36.36,0,0,0,.3.19h5.13a.33.33,0,0,0,.26-.13A.33.33,0,0,0,75.83,272.15Zm-5.23-.24-1.27-2.74-.23-.49-.19-.42-1.79-3.86-1.29-2.79,6.11-.71.92,3.26,1,3.41.11.37.11.38,1,3.59Z" transform="translate(-13.51 -19.44)"/><path class="cls-2" d="M40.77,277.2C38.9,275,34.46,271.47,24,268.46a1.41,1.41,0,0,0-1.42.42l-1.94,2.23-2.83-1.48a1.26,1.26,0,0,0-1.81.85,33.65,33.65,0,0,0-.76,6.44,2.31,2.31,0,0,0,2.22,2.37c4.47.18,14.87.53,22.23.25A1.43,1.43,0,0,0,40.77,277.2Z" transform="translate(-13.51 -19.44)"/><path d="M41,277c-2-2.38-6.55-5.84-16.83-8.81l-.08,0-.25-.05h-.33a1.69,1.69,0,0,0-1.19.57l-1.77,2-2-1.06-.35-.19-.2-.1-.15-.07a1.56,1.56,0,0,0-1.27,0,1.54,1.54,0,0,0-.88,1.1,35.43,35.43,0,0,0-.77,6.5,2.66,2.66,0,0,0,2.54,2.71c3.12.13,9.72.36,15.95.36,2.21,0,4.37,0,6.32-.1A1.78,1.78,0,0,0,41,277Zm-.35,1.57a1.1,1.1,0,0,1-1,.66c-7.41.28-18-.08-22.21-.25a2,2,0,0,1-1.9-2,34.31,34.31,0,0,1,.75-6.38.9.9,0,0,1,.51-.64.93.93,0,0,1,.4-.09.84.84,0,0,1,.43.11l.24.12.35.18.35.19,1.89,1a.34.34,0,0,0,.4-.07l1.94-2.22a1,1,0,0,1,.7-.36.92.92,0,0,1,.33,0h.05l.28.08q3,.88,5.35,1.8l.63.24h0c5.87,2.35,8.84,4.74,10.33,6.51A1.08,1.08,0,0,1,40.68,278.55Z" transform="translate(-13.51 -19.44)"/><path d="M38.72,278.14h0l-21.59-.71a.33.33,0,0,1-.32-.34.34.34,0,0,1,.35-.32l21.58.71a.33.33,0,0,1,0,.66Z" transform="translate(-13.51 -19.44)"/><path d="M27.93,274.48a.26.26,0,0,1-.17-.05.33.33,0,0,1-.12-.45l2.12-3.66a.33.33,0,1,1,.57.34l-2.12,3.65A.32.32,0,0,1,27.93,274.48Z" transform="translate(-13.51 -19.44)"/><path class="cls-2" d="M92.09,276.27c-1.87-2.23-6.31-5.73-16.75-8.74a1.38,1.38,0,0,0-1.42.42L72,270.17l-2.83-1.47a1.26,1.26,0,0,0-1.82.85,35.35,35.35,0,0,0-.76,6.44,2.33,2.33,0,0,0,2.23,2.37c4.47.18,14.87.53,22.23.25A1.43,1.43,0,0,0,92.09,276.27Z" transform="translate(-13.51 -19.44)"/><path d="M92.35,276.05c-1.57-1.85-4.67-4.36-10.82-6.78l-.08,0c-1.75-.68-3.74-1.36-6-2a1.7,1.7,0,0,0-1,0,1.2,1.2,0,0,0-.31.13,1.87,1.87,0,0,0-.29.2l-.16.16-1.77,2-2.59-1.35a1.49,1.49,0,0,0-.4-.15,1.25,1.25,0,0,0-.38,0,1.34,1.34,0,0,0-.35,0,1.45,1.45,0,0,0-.29.11,1.54,1.54,0,0,0-.88,1.1,35.43,35.43,0,0,0-.77,6.5,2.66,2.66,0,0,0,2.54,2.71c3.12.13,9.72.36,16,.36,2.2,0,4.36,0,6.3-.1a1.77,1.77,0,0,0,1.56-1.06A1.74,1.74,0,0,0,92.35,276.05ZM92,277.62a1.11,1.11,0,0,1-1,.66c-7.41.28-18-.09-22.21-.25a2,2,0,0,1-1.9-2,34.31,34.31,0,0,1,.75-6.38.9.9,0,0,1,.51-.64.86.86,0,0,1,.3-.09h.1a.69.69,0,0,1,.28.05h0A.42.42,0,0,1,69,269l.33.17,2.5,1.3a.32.32,0,0,0,.4-.08l1.82-2.07.12-.15a.86.86,0,0,1,.14-.13,1,1,0,0,1,.3-.16,1,1,0,0,1,.64,0c2.12.61,4,1.24,5.63,1.88l.63.24h0c5.87,2.34,8.83,4.74,10.33,6.51A1.08,1.08,0,0,1,92,277.62Z" transform="translate(-13.51 -19.44)"/><path d="M90,277.21h0l-21.58-.71a.33.33,0,0,1-.32-.34.33.33,0,0,1,.34-.32l21.59.71a.33.33,0,0,1,.32.34A.34.34,0,0,1,90,277.21Z" transform="translate(-13.51 -19.44)"/><path d="M79.24,273.55a.33.33,0,0,1-.16-.05.32.32,0,0,1-.12-.45l2.12-3.66a.33.33,0,1,1,.57.34l-2.12,3.65A.32.32,0,0,1,79.24,273.55Z" transform="translate(-13.51 -19.44)"/><path d="M25.72,162.77s-5.67,7.59-7.53,21-1.3,28.43-2.71,35.07-4.24,29.83,1.43,45.22h8.37s11.87-61.74,16-71.69a129.13,129.13,0,0,1,4.78,17.28c1.58,8.44,1.3,19.22,5,28.49s14.4,26.3,14.4,26.3l9.19-.4s-14.94-64.39-16.79-95.64C57.91,168.43,36.66,156.78,25.72,162.77Z" transform="translate(-13.51 -19.44)"/><path class="cls-2" d="M40.47,197.19h-.09a.33.33,0,0,1-.24-.4l2.64-10.45a.34.34,0,0,1,.15-.2l2.85-1.69a.34.34,0,0,1,.46.12.33.33,0,0,1-.12.45l-2.73,1.62-2.6,10.31A.33.33,0,0,1,40.47,197.19Z" transform="translate(-13.51 -19.44)"/><path class="cls-2" d="M25.76,230.94a.33.33,0,0,1-.12-.64,8.19,8.19,0,0,0,4.88-4.43.33.33,0,0,1,.63.22,8.69,8.69,0,0,1-5.28,4.83A.23.23,0,0,1,25.76,230.94Z" transform="translate(-13.51 -19.44)"/><path class="cls-2" d="M77.92,137.83l-.41.69a59,59,0,0,0-6.31,15.54c-.15.68-.29,1.36-.45,2.05,0,.12-.06.25-.08.37s0,.22-.08.33a80.32,80.32,0,0,1-4,13.27l-.14.3a2.92,2.92,0,0,1-.14.31c-1.75,3.75-3.74,5.73-5.87,3.9a4,4,0,0,0-2.09-.71c-6.33-.76-22.84,3.17-33-3a29.57,29.57,0,0,1-3-2c-8.07-6.37-4.94-13.17,7-32.33,11.14-17.94,16.73-19.36,25.75-19.88l.43,0,.43,0c1.4-.08,2.88-.14,4.47-.24a48.69,48.69,0,0,0,4.86-.52l.33-.06.34-.07c3.3-.71,1.62-1.54,6.56-1.57h.67c0,.11,0,.23,0,.34,0,.85-.07,1.71-.07,2.58a46.57,46.57,0,0,0,4.67,20.45C77.81,137.6,77.86,137.72,77.92,137.83Z" transform="translate(-13.51 -19.44)"/><path class="cls-2" d="M96.06,97.69v25c-.21.39-.44.77-.67,1.13V97.37l-.32-.11.32-.25.51.18C96,97.36,96,97.53,96.06,97.69Z" transform="translate(-13.51 -19.44)"/><path d="M77.92,137.83c-.06-.11-.11-.23-.16-.34-.14.22-.29.45-.42.68A60.86,60.86,0,0,0,70.87,154c-.14.66-.28,1.3-.42,1.93,0,.12,0,.25-.08.37s-.05.22-.08.34A77.6,77.6,0,0,1,66.24,170l.33.11a80.32,80.32,0,0,0,4-13.27c0-.11,0-.22.08-.33l.3.19c0-.12,0-.25.08-.37.16-.7.32-1.43.48-2.17A58.8,58.8,0,0,1,77.7,138.9c-.07-.13-.13-.26-.19-.38ZM96,96.88l-.62-.22V97l-.32.25.32.11.24.08c.15.48.29,1,.43,1.41v-2ZM95.49,123a1.4,1.4,0,0,1-.1.16v1.24c.24-.34.46-.69.67-1.05v-1.41C95.88,122.27,95.69,122.62,95.49,123ZM77.92,137.83c-.06-.11-.11-.23-.16-.34-.14.22-.29.45-.42.68A60.86,60.86,0,0,0,70.87,154c-.14.66-.28,1.3-.42,1.93,0,.12,0,.25-.08.37s-.05.22-.08.34A77.6,77.6,0,0,1,66.24,170c0,.1-.09.2-.13.31l-.15.3h0c-1.14,2.44-2.28,3.89-3.37,4.26a1.92,1.92,0,0,1-2-.52,4.47,4.47,0,0,0-2.34-.79,18,18,0,0,0-2-.1c-1.6,0-3.53.13-5.73.27-7.56.5-17.92,1.18-25-3.12a29.62,29.62,0,0,1-3-2.07c-2.32-1.84-3.58-3.62-4.06-5.67-1.22-5.1,2.29-11.89,11.15-26.17,10.93-17.6,16.5-19.18,25.22-19.71l.43,0,.43,0,1.39-.07c1.07,0,2.18-.1,3.35-.18,2.2-.15,3.73-.33,4.84-.52a1.65,1.65,0,0,0,.32-.06l.33-.06a7.28,7.28,0,0,0,2.47-.89c.66-.37,1.19-.67,4.09-.68h.67c0-.11,0-.23,0-.34l0-.33h-.67c-3.1,0-3.68.34-4.46.77a6.34,6.34,0,0,1-2.09.78l-.35.08-.33.06a44.14,44.14,0,0,1-4.9.53l-3.35.18-.84,0-.43,0-.43,0c-9.26.5-15,1.78-26.29,20.05-9,14.44-12.51,21.34-11.24,26.67.53,2.24,1.9,4.17,4.43,6.14a31.27,31.27,0,0,0,2.95,2c7.23,4.41,17.71,3.72,25.36,3.22a48.36,48.36,0,0,1,7.8-.16,3.56,3.56,0,0,1,1.84.62,2.85,2.85,0,0,0,1.84.77,2.25,2.25,0,0,0,.76-.13c1.29-.43,2.56-2,3.82-4.69,0-.1.09-.2.14-.31s.09-.2.13-.31a76.43,76.43,0,0,0,4-13.17c0-.11,0-.22.08-.33s0-.25.08-.37c.16-.7.32-1.43.48-2.17A58.8,58.8,0,0,1,77.7,138.9c.13-.24.27-.47.4-.69Z" transform="translate(-13.51 -19.44)"/><path d="M62.29,109.46s-5.15-4.76-7-5.87S51,97.94,57.36,95.16c2-.9,2.46-3.4,6.42-3.83s7.26,1.59,7.68,4.09-1.94,4.66-3.71,5S62.29,109.46,62.29,109.46Z" transform="translate(-13.51 -19.44)"/><path class="cls-2" d="M71.24,103.59l.55-.8L69.61,100l-1.5-3.67c-4.23-.29-5.92.87-6,4.11,0,2.08-1.13,2.13-1.13,2.13s-1.61-1.73-2.44.32,2.63,3.48,2.63,3.48l.73,1.54-7.16,9.73s11.53,3,11.65,1.23a2,2,0,0,0-.41-1.32c-1.33-1.81,1.07-6.7,1.07-6.7l3.85-1.56a1.48,1.48,0,0,0,.87-1.79L71,104.89A1.53,1.53,0,0,1,71.24,103.59Z" transform="translate(-13.51 -19.44)"/><path d="M72.11,107.41l-.76-2.62a1.21,1.21,0,0,1,.16-1l.56-.8a.32.32,0,0,0,0-.39L69.9,99.83l-.17-.42h0L68.42,96.2a.35.35,0,0,0-.29-.2c-2.51-.17-4.14.17-5.12,1.07a4.46,4.46,0,0,0-1.21,3.37c0,1.31-.48,1.67-.7,1.76a2.11,2.11,0,0,0-1.64-.62,1.7,1.7,0,0,0-1.21,1.19c-.85,2.12,2,3.57,2.69,3.86l.59,1.25-.4.53-5.78,7.87-.26.34-.25.35-.35.47a.38.38,0,0,0-.05.31.37.37,0,0,0,.23.21c.84.22,6.95,1.81,10.1,1.81a3.12,3.12,0,0,0,1.65-.31.72.72,0,0,0,.32-.56,2.27,2.27,0,0,0-.47-1.54,2.27,2.27,0,0,1-.34-1.33c0-.11,0-.23,0-.34a2.07,2.07,0,0,1,0-.35,15.61,15.61,0,0,1,1.34-4.23l3.73-1.51A1.82,1.82,0,0,0,72.11,107.41Zm-5.34,3.29a16.67,16.67,0,0,0-1.47,4.78c0,.11,0,.23,0,.34v.33a2.74,2.74,0,0,0,.45,1.6,1.66,1.66,0,0,1,.35,1.1s0,0,0,.07c-1,.69-6.89-.49-10.71-1.48l.38-.52.25-.34.26-.35,5.42-7.37.55-.75a.32.32,0,0,0,0-.34l-.73-1.54a.32.32,0,0,0-.18-.16s-3.14-1.33-2.44-3c.19-.47.43-.74.71-.79.45-.08,1,.38,1.18.57a.31.31,0,0,0,.26.1s1.4-.09,1.45-2.45a3.76,3.76,0,0,1,1-2.88c.82-.75,2.23-1,4.43-.92l1.29,3.15.13.32a.22.22,0,0,0,0,.08l2,2.6-.41.6a1.85,1.85,0,0,0-.26,1.58l.76,2.62A1.15,1.15,0,0,1,70.8,109L67,110.54A.35.35,0,0,0,66.77,110.7Z" transform="translate(-13.51 -19.44)"/><polygon class="cls-2" points="261.78 231.46 265.79 242.27 260.11 244.01 255.82 233.96 261.78 231.46"/><path d="M279.61,261.6l-1.16-3.13-.14-.39-.14-.38L276.78,254l-.18-.48h0l-.23-.63-.77-2.05a.29.29,0,0,0-.18-.19.31.31,0,0,0-.25,0l-6,2.5a.37.37,0,0,0-.18.19.31.31,0,0,0,0,.25l1.54,3.62.29.67,1.29,3,.13.31.13.31.9,2.12a.35.35,0,0,0,.31.2h.1L279.4,262a.32.32,0,0,0,.21-.43Zm-5.8,1.45-.63-1.48-.15-.35-.15-.35-1.37-3.2-.13-.31-.13-.31-1.48-3.47,5.33-2.24,1,2.59.15.4.15.39,1.36,3.67.14.4.15.39.86,2.32Z" transform="translate(-13.51 -19.44)"/><path class="cls-2" d="M272.54,261.15a5,5,0,0,0,5.24-2.23l.58-.92a.59.59,0,0,1,.92-.1l5.19,5.28a2.66,2.66,0,0,1,.36,3.4,26.19,26.19,0,0,1-4.35,4.77c-3.6,3-6.18,8.53-10.51,8.11s-4.15-.67-4.85-1.88.77-4.24,3.5-7.83c1.67-2.19,2.9-6.49,3.23-8.14A.59.59,0,0,1,272.54,261.15Z" transform="translate(-13.51 -19.44)"/><path d="M285.58,264.67a2.62,2.62,0,0,0-.17-.64h0a2.69,2.69,0,0,0-.7-1.07l-.16-.16-5-5.12a.92.92,0,0,0-.75-.27.89.89,0,0,0-.59.3.47.47,0,0,0-.09.12l-.14.22-.22.35-.22.36a4.71,4.71,0,0,1-4.62,2.12l-.27,0-.12,0a.8.8,0,0,0-.34,0,1,1,0,0,0-.23.11.84.84,0,0,0-.39.58c-.35,1.71-1.59,5.93-3.17,8-1.76,2.3-4.55,6.44-3.53,8.2l.13.24a2.4,2.4,0,0,0,.88,1h0a3.68,3.68,0,0,0,1,.34c.31.07.69.14,1.16.2s1.18.15,2,.23h0l.46,0c2.18,0,3.94-1.43,5.57-3.18.52-.55,1-1.14,1.53-1.72a27.58,27.58,0,0,1,3.16-3.3,23,23,0,0,0,1.94-1.85l0,0a27.56,27.56,0,0,0,2.25-2.71h0a2.7,2.7,0,0,1,.18-.25A3,3,0,0,0,285.58,264.67Zm-8.54,9.8c-2.18,2.53-4.25,4.93-7,4.65l-1.14-.12h0a6.25,6.25,0,0,1-2.77-.64h0a2.05,2.05,0,0,1-.53-.7.05.05,0,0,0,0,0l-.12-.21c-.45-.79.22-3.16,3.49-7.46.13-.17.25-.35.38-.54l.36-.6a18.47,18.47,0,0,0,.93-1.95c.09-.21.17-.42.25-.63a31.59,31.59,0,0,0,1.37-4.56.27.27,0,0,1,.1-.16l.13,0h.07l.32,0,.38,0a5.37,5.37,0,0,0,4.83-2.39.35.35,0,0,1,.05-.08l.17-.27.22-.36.19-.29a.22.22,0,0,1,.19-.12.22.22,0,0,1,.21.07l4.93,5,.24.24,0,.05a1.12,1.12,0,0,1,.18.2,2.34,2.34,0,0,1,.13,2.76,26.29,26.29,0,0,1-4.29,4.71A29.52,29.52,0,0,0,277,274.47Z" transform="translate(-13.51 -19.44)"/><path d="M274.71,267.66h-.07l-4.1-.8a.34.34,0,0,1-.27-.39.34.34,0,0,1,.39-.27l4.11.8a.33.33,0,0,1-.06.66Z" transform="translate(-13.51 -19.44)"/><path d="M273.68,270.27h-.07l-4.35-.86A.34.34,0,0,1,269,269a.33.33,0,0,1,.39-.26l4.35.85a.33.33,0,0,1,.26.4A.33.33,0,0,1,273.68,270.27Z" transform="translate(-13.51 -19.44)"/><path class="cls-2" d="M265.3,277.86S268,280.39,272,277c2.72-2.25,12.4-13.92,12.4-13.92l1.21,1.15a1.63,1.63,0,0,1,.16,2.2c-2.39,3-8.83,10.8-13,12.84C267.61,281.84,265.3,277.86,265.3,277.86Z" transform="translate(-13.51 -19.44)"/><path d="M285.88,264l-1.21-1.14a.47.47,0,0,0-.12-.07.3.3,0,0,0-.13,0,.37.37,0,0,0-.24.12l-.21.25c-1.43,1.72-9.69,11.61-12.14,13.62-3.79,3.13-6.2,1-6.31.86h0a.32.32,0,0,0-.4,0l0,0a.34.34,0,0,0-.08.43,5.08,5.08,0,0,0,.83,1h0a5.38,5.38,0,0,0,3.69,1.45,7.76,7.76,0,0,0,3.42-.88c4.2-2.06,10.57-9.73,13.1-12.94A2,2,0,0,0,285.88,264Zm-1,3h0c-.62.78-1.39,1.71-2.25,2.71l0,0a66.26,66.26,0,0,1-6.63,6.87,16.25,16.25,0,0,1-3.35,2.36,7.53,7.53,0,0,1-2.68.8,4.8,4.8,0,0,1-2-.23,4.46,4.46,0,0,1-1.05-.51h0l-.12-.08a4.78,4.78,0,0,0,2.05,0h0a7.46,7.46,0,0,0,3.39-1.73c2.5-2,10.59-11.73,12.18-13.64l0,0,.66.62.29.28a.93.93,0,0,1,.16.18,1.29,1.29,0,0,1,0,1.57Z" transform="translate(-13.51 -19.44)"/><polygon class="cls-2" points="230.9 235.42 234.46 250.97 228.1 254.49 223.69 237.6 230.9 235.42"/><path d="M248.29,270.34l-.24-1.08-.08-.33-.08-.33-1-4.51-.12-.52-.13-.57-1.88-8.21a.36.36,0,0,0-.16-.21.3.3,0,0,0-.26,0l-7.21,2.17a.32.32,0,0,0-.22.4l2,7.54.14.56.13.48.62,2.36.11.45.17.62,1.27,4.88a.32.32,0,0,0,.19.23l.13,0a.29.29,0,0,0,.16,0l6.36-3.51A.33.33,0,0,0,248.29,270.34Zm-7.51-.92h0l-.17-.62-.72-2.78-.1-.37-.1-.4-2.09-8,6.56-2,2,8.69.09.44h0l.1.41.91,4,.08.33.07.33.18.77-5.76,3.18-.9-3.42Z" transform="translate(-13.51 -19.44)"/><path class="cls-2" d="M248.89,269.67a57.61,57.61,0,0,1,.53,6.8,3.08,3.08,0,0,1-2.72,3.07,120.39,120.39,0,0,1-22.78.25,2.19,2.19,0,0,1-1.87-1.94c-.92-4.89,7.53-6,16.82-9.51a1,1,0,0,1,1,.23l1,1a3.44,3.44,0,0,0,3.76.72l3-1.28A.86.86,0,0,1,248.89,269.67Z" transform="translate(-13.51 -19.44)"/><path d="M249.74,276.07a58.65,58.65,0,0,0-.52-6.44,1.18,1.18,0,0,0-.59-.88,1.21,1.21,0,0,0-.74-.15.91.91,0,0,0-.31.09h0l-.31.13L244.54,270a3.13,3.13,0,0,1-3.4-.66l-.53-.52-.46-.46h0a1.22,1.22,0,0,0-.41-.27,1.31,1.31,0,0,0-1,0c-2.17.81-4.25,1.49-6.26,2.13-5.63,1.82-10.23,3.3-10.79,6.34v0a.41.41,0,0,0,0,.11v0a3.28,3.28,0,0,0,0,1v.09a.78.78,0,0,0,0,.16,2.53,2.53,0,0,0,2.17,2.21c3.17.31,6.53.44,9.74.44a117,117,0,0,0,13.1-.69,3.42,3.42,0,0,0,3-3.4C249.75,276.33,249.75,276.2,249.74,276.07Zm-.65.38v0a2.76,2.76,0,0,1-2.44,2.74,119,119,0,0,1-22.69.25,1.84,1.84,0,0,1-1.58-1.68,3.25,3.25,0,0,1,0-1.16q0-.18.09-.33c.67-2.13,3.89-3.41,8.26-4.85l.7-.23,1.28-.41.61-.2h0l.71-.23c1.61-.52,3.26-1.07,5-1.71a.69.69,0,0,1,.24-.05.67.67,0,0,1,.47.2l.33.32.46.45.19.2c.09.09.18.16.26.23a3.77,3.77,0,0,0,3.87.57l2.61-1.1.32-.13.11-.05a.52.52,0,0,1,.21,0,.47.47,0,0,1,.25.07.52.52,0,0,1,.26.38c.17,1.32.46,3.76.52,6.08v.33C249.09,276.23,249.09,276.34,249.09,276.45Z" transform="translate(-13.51 -19.44)"/><path class="cls-2" d="M249.42,276.09v.38a3.08,3.08,0,0,1-2.72,3.07,120.39,120.39,0,0,1-22.78.25,2.19,2.19,0,0,1-1.87-1.94,6.65,6.65,0,0,1,0-1.25l.59,0a174.16,174.16,0,0,0,25.64-.43Z" transform="translate(-13.51 -19.44)"/><path d="M249.75,276.09s0,0,0,0a.29.29,0,0,0-.1-.22.32.32,0,0,0-.23-.09h0l-.31,0-.85.07a173.51,173.51,0,0,1-25.59.44h-.19l-.35,0H222a.37.37,0,0,0-.34.24v0s0,0,0,.05v.1a8.06,8.06,0,0,0,0,1v.09a.78.78,0,0,0,0,.16,2.53,2.53,0,0,0,2.17,2.21c3.17.31,6.53.44,9.74.44a117,117,0,0,0,13.1-.69,3.42,3.42,0,0,0,3-3.4Zm-.66.38a2.76,2.76,0,0,1-2.44,2.74,119,119,0,0,1-22.69.25,1.84,1.84,0,0,1-1.58-1.68,4.35,4.35,0,0,1,0-.83h.27a174.72,174.72,0,0,0,25.68-.43l.8-.08Z" transform="translate(-13.51 -19.44)"/><path d="M236.71,273.93a.31.31,0,0,1-.24-.1l-3.23-3.29a.33.33,0,0,1,.48-.46l3.22,3.29a.33.33,0,0,1,0,.47A.35.35,0,0,1,236.71,273.93Z" transform="translate(-13.51 -19.44)"/><path d="M233.51,274.25a.33.33,0,0,1-.24-.1l-2.58-2.73a.34.34,0,0,1,.49-.46l2.57,2.73a.33.33,0,0,1-.24.56Z" transform="translate(-13.51 -19.44)"/><path d="M214.24,177.85c-1.23.47-2.8.94-2.8.94s-.13,2.16,3.33,4.54c2.77,1.9,12.69,7.32,28.77,3.52,4.44-1,9.14-5,6.37-9.64-3.69-6.25-19.89-5-19.89-5Z" transform="translate(-13.51 -19.44)"/><path d="M276.55,252c-13.29-34.92-22.05-35.73-27-44.15-5.23-8.91-5.28-16.38-6.31-26.09-.76-7.14-5.44-14-5.32-14.86l-1.57.14a14.44,14.44,0,0,0-.79-1.73l-20,3.54s-6.88,22.72,2.94,49.75c7.11,19.55,16.63,39.28,19.55,45.41a3.11,3.11,0,0,0,3.17,1.75l3.42-.32c1.85-.22,2.53-2.66,2.65-3.81.59-5.5-.34-12.85-2.31-21.61-1.13-5-3.86-10.32-4.81-15-.26-1.26-.5-2.47-.73-3.64,1.66,2.42,3.12,4.54,4.18,6.15,4.24,6.45,21,22.59,24.6,28.43a3.06,3.06,0,0,0,2.87,1.45l3-1.07S277.44,254.35,276.55,252Z" transform="translate(-13.51 -19.44)"/><path class="cls-2" d="M276.86,251.91c-9.56-25.11-16.71-32.56-21.94-38a33.1,33.1,0,0,1-5.08-6.2c-4.27-7.26-5.07-13.7-5.78-21,0-.41-.08-.81-.12-1.23-.12-1.21-.24-2.45-.37-3.74a28.69,28.69,0,0,0-2-7.57c-.05-.14-.11-.28-.17-.42s-.12-.27-.17-.41l-.3-.67c-.6-1.37-1.2-2.57-1.69-3.55a12.49,12.49,0,0,1-1-2.16.33.33,0,0,0-.09-.27.34.34,0,0,0-.27-.1l-1.33.12a14.26,14.26,0,0,0-.71-1.55.34.34,0,0,0-.35-.16l-20,3.54a.32.32,0,0,0-.26.23,60.68,60.68,0,0,0-1.72,9.28.2.2,0,0,0,0,.07l0,.31c0,.13,0,.25-.05.38-.11,1-.2,2-.28,3.14a89.23,89.23,0,0,0,5,36.78c6.76,18.62,15.72,37.39,19.09,44.45l.47,1a3.44,3.44,0,0,0,1.41,1.51,3.54,3.54,0,0,0,.39.19,2.4,2.4,0,0,0,.38.12,3.1,3.1,0,0,0,.92.13,2.75,2.75,0,0,0,.4,0l3.43-.32a2.66,2.66,0,0,0,1.71-1c.1-.11.18-.22.27-.34h0c.08-.14.17-.27.24-.41a6.81,6.81,0,0,0,.73-2.4c.55-5.19-.21-12.3-2.33-21.71a60,60,0,0,0-2.45-7.57,52.15,52.15,0,0,1-2.36-7.39c0-.28-.11-.56-.17-.85h0q-.12-.61-.24-1.2c1.29,1.88,2.41,3.51,3.26,4.81.3.46.67,1,1.09,1.52,2.5,3.28,6.94,8,11.25,12.69,5.15,5.54,10.47,11.27,12.26,14.21a3.36,3.36,0,0,0,3,1.62h.22l.08,0h0l.31-.11,2.64-.95s0,0,.06,0a8,8,0,0,0,2.15-2c.08-.11.15-.23.22-.35a3.11,3.11,0,0,0,.2-.41A2.63,2.63,0,0,0,276.86,251.91Zm-.61,1.58a2.44,2.44,0,0,1-.19.44,6.89,6.89,0,0,1-2.17,2.18l-2.64.94-.27.1h-.05a2.16,2.16,0,0,1-.36,0,2.69,2.69,0,0,1-2.1-1.29c-1.82-3-6.93-8.5-12.35-14.32-5-5.4-10.19-11-12.26-14.13-.87-1.32-2-3-3.3-4.86l-.89-1.29a.33.33,0,0,0-.4-.12.35.35,0,0,0-.17.17.34.34,0,0,0,0,.2c.09.42.17.84.25,1.28h0q.24,1.16.48,2.37a53,53,0,0,0,2.39,7.48,59.76,59.76,0,0,1,2.42,7.49c2.1,9.34,2.86,16.37,2.31,21.49a6,6,0,0,1-.31,1.38,3.49,3.49,0,0,1-.22.53h0c-.07.15-.15.3-.23.44a2.26,2.26,0,0,1-1.59,1.16l-3.43.32a2.73,2.73,0,0,1-1.45-.22,3.3,3.3,0,0,1-.41-.23,2.86,2.86,0,0,1-.43-.35,2.76,2.76,0,0,1-.54-.76l-.47-1c-3.37-7.06-12.31-25.81-19.06-44.4a88.41,88.41,0,0,1-5.05-36c.1-1.44.22-2.77.36-4,0-.13,0-.25,0-.38h0l0-.27a.43.43,0,0,1,0-.11,62.07,62.07,0,0,1,1.59-8.6l19.6-3.46c.13.25.37.75.66,1.48a.32.32,0,0,0,.33.21l1.27-.11a16.57,16.57,0,0,0,1,2.14c.43.88,1,1.94,1.5,3.13.08.17.15.33.22.5s.12.27.18.41.12.27.17.41a29.06,29.06,0,0,1,2.21,7.94c.13,1.28.25,2.53.37,3.74,0,.44.08.88.13,1.33.71,7.33,1.54,13.81,5.86,21.16a33.06,33.06,0,0,0,5.17,6.32c5.18,5.4,12.29,12.79,21.8,37.77a2,2,0,0,1,.13.7A2.41,2.41,0,0,1,276.25,253.49Z" transform="translate(-13.51 -19.44)"/><path class="cls-2" d="M244.06,229.58a.33.33,0,0,1-.28-.15s-1.9-3-4.5-6.71l-.24-.34c-4.67-6.69-13.36-19.14-16.11-31.66a.33.33,0,0,1,.25-.39.33.33,0,0,1,.4.25c2.72,12.39,11.36,24.77,16,31.42l.24.34c2.62,3.75,4.5,6.7,4.52,6.73a.33.33,0,0,1-.1.46A.37.37,0,0,1,244.06,229.58Z" transform="translate(-13.51 -19.44)"/><path d="M269.14,148.36c-2.34,1.75-5.52,1.43-8.08.62-.46-.15-.95-.33-1.46-.55-1.48-.64-3.1-2.62-4.87-2.3-2,.36-5.82,1.76-9.59,2.21l-.33,0-.34,0a14,14,0,0,1-3.79-.13l-.33-.07-.33-.08c-3.61-1-6.24-4.14-5.67-12,.05-.74.1-1.44.12-2.1.14-4.08-.48-6.79-4.48-7.73-1.79-.42-4.93.93-8.41.09a6.56,6.56,0,0,1-4.51-3.19,7.66,7.66,0,0,1-.53-1.26,7.24,7.24,0,0,1-.25-1.12c0-.12,0-.23,0-.34l0-.36a12.75,12.75,0,0,1,.53-4.5,10.42,10.42,0,0,1,.59-1.6c.06-.13.11-.24.17-.35a4.2,4.2,0,0,0,.24-4.15A9,9,0,0,1,221.14,98c6.27-4.24,13.21,3,15.94,3.77,3.47,1,9.57-1.67,11.87-1.29,2.12.35,10.22.42,11.9,10.52a20.11,20.11,0,0,1,.24,3.37c0,1.44.36,5.27,5.19,8.68C272.74,127.62,279,141,269.14,148.36Z" transform="translate(-13.51 -19.44)"/><path class="cls-2" d="M241.38,173.76l-.42-.15-.43-.14a19,19,0,0,0-3.32-.84,27.23,27.23,0,0,0-9,.24,24.69,24.69,0,0,0-4.5,1.33l-4.84,2-4.72,2h0l-.38.16-.32.13-.94.39a.51.51,0,0,1-.61-.18.5.5,0,0,1-.09-.32c.1-2.13.4-8.24.68-15.35,0-.12,0-.23,0-.34s0-.22,0-.34c.12-3,.23-6.06.33-9.12,0-.11,0-.23,0-.34s0-.23,0-.34c0-1.11.07-2.22.1-3.3a12.67,12.67,0,0,0-1-5.37l-.26-.6c-.09-.19-.16-.39-.24-.59s-.07-.21-.11-.31,0,0,0,0a.76.76,0,0,1,0-.11l-.09-.29c0-.08-.05-.16-.07-.25s-.08-.29-.11-.44a9.55,9.55,0,0,1-.18-1.07c.1-.18.2-.36.29-.54a47.54,47.54,0,0,0,5.43-17.69,7.24,7.24,0,0,1-.25-1.12c0-.12,0-.23,0-.34l.41.13.66.18a17,17,0,0,0,4.93.59l.42,0c.14,0,.27,0,.4,0a10,10,0,0,0,1.37-.21c.42-.09.85-.18,1.27-.25a11,11,0,0,1,3.09-.09l.39,0,.38,0a29.45,29.45,0,0,1,8.31,3,9.63,9.63,0,0,1,4.37,3.94,7.94,7.94,0,0,1,.72,1.76h0a3,3,0,0,1,.08.32c.65,2.55.35,5.57-.14,9-.72,5-1.91,3.28-2.56,9.39l-.06.57a30.82,30.82,0,0,0,.88,9.68c0,.11.05.22.07.33l.09.33a64.9,64.9,0,0,0,6.69,16.1c.47.79.9,1.46,1.26,2C249.45,177.45,245.41,175.22,241.38,173.76Z" transform="translate(-13.51 -19.44)"/><path d="M213.8,177.93l-.32.13-.82.34h0l.77-.26a3,3,0,0,0,.32-.12l.38-.13a.43.43,0,0,1,0-.11Zm-1.57-34.23-.26-.6a10.68,10.68,0,0,1-.72-2.35l-.25.45c0,.15.07.3.11.44s0,.17.07.25l.09.29a.76.76,0,0,0,0,.11s0,0,0,0,.07.21.11.31.15.4.24.59l.26.6a12.67,12.67,0,0,1,1,5.37c0,1.08-.06,2.19-.1,3.3l.34-.07c0-1.09.07-2.16.09-3.22A12.87,12.87,0,0,0,212.23,143.7Zm1.57,34.23-.32.13-.82.34h0l.77-.26a3,3,0,0,0,.32-.12l.38-.13a.43.43,0,0,1,0-.11Zm-1.57-34.23-.26-.6a10.68,10.68,0,0,1-.72-2.35l-.25.45c0,.15.07.3.11.44s0,.17.07.25l.09.29a.76.76,0,0,0,0,.11s0,0,0,0,.07.21.11.31.15.4.24.59l.26.6a12.67,12.67,0,0,1,1,5.37c0,1.08-.06,2.19-.1,3.3l.34-.07c0-1.09.07-2.16.09-3.22A12.87,12.87,0,0,0,212.23,143.7Zm1.57,34.23-.32.13-.82.34h0l.77-.26a3,3,0,0,0,.32-.12l.38-.13a.43.43,0,0,1,0-.11ZM213,149.2c0,1.08-.06,2.19-.1,3.3l.34-.07c0-1.09.07-2.16.09-3.22a12.87,12.87,0,0,0-1.06-5.51l-.26-.6a10.68,10.68,0,0,1-.72-2.35l-.25.45c0,.15.07.3.11.44s0,.17.07.25l.09.29a.76.76,0,0,0,0,.11s0,0,0,0,.07.21.11.31.15.4.24.59l.26.6A12.67,12.67,0,0,1,213,149.2ZM249.55,177c-.24-.35-.5-.76-.78-1.2h0A63.12,63.12,0,0,1,241.63,159c0-.11,0-.23-.08-.34s-.05-.22-.08-.33a30.38,30.38,0,0,1-.85-9.5c0-.19,0-.36.06-.53A12.89,12.89,0,0,1,242,143a11.57,11.57,0,0,0,1.23-4.15,33.67,33.67,0,0,0,.47-7c0-.18,0-.37-.05-.54a9.54,9.54,0,0,0-1.74-4.74,10.59,10.59,0,0,0-3.9-3.12,28.59,28.59,0,0,0-8.61-3l-.37,0-.38,0a11.65,11.65,0,0,0-3,.11c-.42.07-.85.16-1.29.25a9.86,9.86,0,0,1-1.13.19l-.38,0-.39,0a17.49,17.49,0,0,1-5.13-.59l-.66-.19-.46-.14,0,.36c0,.11,0,.22,0,.34l.34.1c.22.06.43.13.65.18a18,18,0,0,0,4.68.61h.46l.43,0a10.58,10.58,0,0,0,1.65-.23l1.26-.25a11,11,0,0,1,3.19-.06l.38,0h0l.39.07a29.26,29.26,0,0,1,8,2.91,9.57,9.57,0,0,1,4,3.4s0,0,0,0a0,0,0,0,1,0,0s0,0,0,0c1.82,2.89,1.51,6.65.85,11.22a11.2,11.2,0,0,1-1.17,4,13.33,13.33,0,0,0-1.39,5.4c0,.2,0,.4-.06.62a31.12,31.12,0,0,0,.9,9.84c0,.1,0,.21.08.32s.05.22.08.33a64.75,64.75,0,0,0,6.36,15.56h0c.35.61.69,1.17,1,1.67l-.29-.13a68.22,68.22,0,0,0-6.9-3l-.43-.15-.43-.14a18.49,18.49,0,0,0-3.09-.76l-.87-.1h0a27.44,27.44,0,0,0-5.73,0h-.17l-.55.06h0a25.6,25.6,0,0,0-6.34,1.64l-9.38,3.88-.39.16-.32.13-.82.34h0l-.26.11a.22.22,0,0,1-.11,0l-.07,0a.16.16,0,0,1-.07-.15c.12-2.39.41-8.43.69-15.41,0-.12,0-.23,0-.34s0-.23,0-.34c.11-3,.23-6.08.33-9.15v-.34c0-.11,0-.23,0-.34,0-1.09.07-2.16.09-3.22a12.87,12.87,0,0,0-1.06-5.51l-.26-.6a10.68,10.68,0,0,1-.72-2.35,7.49,7.49,0,0,1-.11-.79l0-.37c-.09.18-.19.36-.29.54s-.17.33-.27.5a9.22,9.22,0,0,0,.21,1,12,12,0,0,0,.6,1.74l.26.6a12.2,12.2,0,0,1,1,5.23c0,1.11-.07,2.24-.11,3.38v.34l0,.34c-.09,3.05-.21,6.15-.33,9.09h0c0,.11,0,.22,0,.33s0,.23,0,.34c-.28,6.93-.57,12.92-.69,15.29a.87.87,0,0,0,.36.74.88.88,0,0,0,.49.15.71.71,0,0,0,.32-.07l.76-.31.33-.13.37-.16,9.74-4A26.21,26.21,0,0,1,237.17,173a19.45,19.45,0,0,1,3.53.92l.43.14.42.16c2.42.9,4.83,2.06,6.27,2.75s1.52.74,1.72.51A.36.36,0,0,0,249.55,177ZM212.23,143.7l-.26-.6a10.68,10.68,0,0,1-.72-2.35l-.25.45c0,.15.07.3.11.44s0,.17.07.25l.09.29a.76.76,0,0,0,0,.11s0,0,0,0,.07.21.11.31.15.4.24.59l.26.6a12.67,12.67,0,0,1,1,5.37c0,1.08-.06,2.19-.1,3.3l.34-.07c0-1.09.07-2.16.09-3.22A12.87,12.87,0,0,0,212.23,143.7Zm1.57,34.23-.32.13-.82.34h0l.77-.26a3,3,0,0,0,.32-.12l.38-.13a.43.43,0,0,1,0-.11Zm-1.57-34.23-.26-.6a10.68,10.68,0,0,1-.72-2.35l-.25.45c0,.15.07.3.11.44s0,.17.07.25l.09.29a.76.76,0,0,0,0,.11s0,0,0,0,.07.21.11.31.15.4.24.59l.26.6a12.67,12.67,0,0,1,1,5.37c0,1.08-.06,2.19-.1,3.3l.34-.07c0-1.09.07-2.16.09-3.22A12.87,12.87,0,0,0,212.23,143.7Zm1.57,34.23-.32.13-.82.34h0l.77-.26a3,3,0,0,0,.32-.12l.38-.13a.43.43,0,0,1,0-.11Z" transform="translate(-13.51 -19.44)"/><path d="M221.51,144.5a.32.32,0,0,1-.29-.17c-1.72-3-.91-7.48-.88-7.67a.34.34,0,0,1,.39-.27.33.33,0,0,1,.26.39s-.79,4.43.81,7.22a.34.34,0,0,1-.13.46A.32.32,0,0,1,221.51,144.5Z" transform="translate(-13.51 -19.44)"/><path d="M211.14,140l0-.37c-.09.18-.19.36-.29.54s-.17.33-.27.5a73.71,73.71,0,0,1-8.09,11.68c-.81,1-1.65,1.94-2.52,2.92l-.3.34-.3.33c.29,0,.59,0,.89,0l.29-.32.28-.33c.75-.83,1.47-1.67,2.17-2.51a76.53,76.53,0,0,0,7.79-11.12l.24-.42.25-.45A7.49,7.49,0,0,1,211.14,140Zm-12.81,17.85-.73,0-.3.32-.76.78c-.15.16-.3.33-.47.49l1.3-.38.45-.48.35-.37.28-.3A.24.24,0,0,0,198.33,157.81ZM96,161.55a128.54,128.54,0,0,1-8.72-9.49,71.18,71.18,0,0,1-9.16-13.85l-.18-.38-.41.69c.06.12.12.25.19.38a72.59,72.59,0,0,0,9,13.58c2.52,3.05,5.34,6.11,8.44,9.21l.29.3c.21,0,.48-.09.78-.16ZM211.14,140l0-.37c-.09.18-.19.36-.29.54s-.17.33-.27.5a73.71,73.71,0,0,1-8.09,11.68c-.81,1-1.65,1.94-2.52,2.92l-.3.34-.3.33c.29,0,.59,0,.89,0l.29-.32.28-.33c.75-.83,1.47-1.67,2.17-2.51a76.53,76.53,0,0,0,7.79-11.12l.24-.42.25-.45A7.49,7.49,0,0,1,211.14,140Zm-12.81,17.85-.73,0-.3.32-.76.78c-.15.16-.3.33-.47.49l1.3-.38.45-.48.35-.37.28-.3A.24.24,0,0,0,198.33,157.81ZM96,161.55a128.54,128.54,0,0,1-8.72-9.49,71.18,71.18,0,0,1-9.16-13.85l-.18-.38c-.06-.11-.11-.23-.16-.34A46.57,46.57,0,0,1,73.09,117c0-.87,0-1.73.07-2.58h-.67c0,.85-.07,1.72-.07,2.58a47.44,47.44,0,0,0,4.92,21.13l.17.35c.06.12.12.25.19.38a72.59,72.59,0,0,0,9,13.58c2.52,3.05,5.34,6.11,8.44,9.21l.29.3c.21,0,.48-.09.78-.16ZM211.14,140l0-.37c-.09.18-.19.36-.29.54s-.17.33-.27.5a73.71,73.71,0,0,1-8.09,11.68c-.81,1-1.65,1.94-2.52,2.92l-.3.34-.3.33c.29,0,.59,0,.89,0l.29-.32.28-.33c.75-.83,1.47-1.67,2.17-2.51a76.53,76.53,0,0,0,7.79-11.12l.24-.42.25-.45A7.49,7.49,0,0,1,211.14,140ZM197.6,157.78l-.3.32-.76.78c-.15.16-.3.33-.47.49l1.3-.38.45-.48.35-.37.28-.3a.24.24,0,0,0-.12,0ZM98.47,164l.24.21c-.08-.07-.15-.15-.22-.22ZM96,161.55a128.54,128.54,0,0,1-8.72-9.49,71.18,71.18,0,0,1-9.16-13.85l-.18-.38c-.06-.11-.11-.23-.16-.34A46.57,46.57,0,0,1,73.09,117c0-.87,0-1.73.07-2.58h-.67c0,.85-.07,1.72-.07,2.58a47.44,47.44,0,0,0,4.92,21.13l.17.35c.06.12.12.25.19.38a72.59,72.59,0,0,0,9,13.58c2.52,3.05,5.34,6.11,8.44,9.21l.29.3.29.28h0l.77-.16-.28-.28ZM217.33,114A45,45,0,0,0,206,86.28a39.11,39.11,0,0,0-29.09-12.75A36.56,36.56,0,0,0,154,81.38a46.84,46.84,0,0,0-9,9.26,46.9,46.9,0,0,0-8.95-9.3,36.62,36.62,0,0,0-22.87-8h-.09A39.14,39.14,0,0,0,84,86a45,45,0,0,0-11.49,27.78c0,.11,0,.22,0,.33s0,.23,0,.34c0,.85-.07,1.72-.07,2.58a47.44,47.44,0,0,0,4.92,21.13l.17.35c.06.12.12.25.19.38a72.59,72.59,0,0,0,9,13.58c2.52,3.05,5.34,6.11,8.44,9.21l.29.3.29.28h0c2.76,2.75,5.73,5.54,8.88,8.39l.3.27.24.22q4,3.65,8.45,7.44l.06,0c2.85,2.48,5.81,5,8.86,7.62l.12.11c4.93,4.22,10.51,9,16.29,14.08a8.76,8.76,0,0,0,5.79,2.19h0a8.78,8.78,0,0,0,5.79-2.16q1.63-1.44,3.26-2.83l.07-.06c4.64-4,9.09-7.79,13.1-11.2l0,0c3.15-2.68,6.2-5.27,9.15-7.8l.05,0c6.35-5.47,12.18-10.63,17.31-15.67l.29-.27.27-.28q1.69-1.67,3.28-3.32l.45-.48.35-.37.28-.3c.61-.65,1.2-1.29,1.78-1.94l.29-.32.28-.33c.75-.83,1.47-1.67,2.17-2.51a76.53,76.53,0,0,0,7.79-11.12l.24-.42.25-.45a49,49,0,0,0,5.82-17.59q.13-1.05.21-2.1l0-.31c0-.12,0-.23,0-.34.07-1,.1-2,.1-3S217.4,115.1,217.33,114Zm-.68,6.59,0,.31c0,.34,0,.68-.09,1a47.54,47.54,0,0,1-5.43,17.69c-.09.18-.19.36-.29.54s-.17.33-.27.5a73.71,73.71,0,0,1-8.09,11.68c-.81,1-1.65,1.94-2.52,2.92l-.3.34-.3.33c-.57.63-1.15,1.25-1.74,1.88l-.3.32-.76.78c-.15.16-.3.33-.47.49-.88.91-1.79,1.83-2.72,2.75l-.28.27a3.19,3.19,0,0,0-.26.26c-4.92,4.79-10.47,9.72-16.5,14.91l-.66.58q-4.38,3.75-9.06,7.72l0,0c-3.86,3.28-8.13,6.9-12.59,10.75l-.66.57L150.12,200a8.1,8.1,0,0,1-5.35,2h0a8.16,8.16,0,0,1-5.36-2l-2.85-2.51-.67-.57c-4.52-3.95-8.86-7.66-12.77-11l-.13-.1q-4.53-3.88-8.78-7.55l-.66-.57c-2.9-2.53-5.7-5-8.37-7.39l-1.86-1.7h0q-2.34-2.14-4.53-4.25l-.06-.06c-.08-.07-.15-.15-.22-.22l-.25-.23-1.71-1.67h0l-.28-.28-.27-.28a128.54,128.54,0,0,1-8.72-9.49,71.18,71.18,0,0,1-9.16-13.85l-.18-.38c-.06-.11-.11-.23-.16-.34A46.57,46.57,0,0,1,73.09,117c0-.87,0-1.73.07-2.58,0-.11,0-.23,0-.34s0-.22,0-.33A44.23,44.23,0,0,1,84.51,86.46a38.49,38.49,0,0,1,28.56-12.41h.09a36,36,0,0,1,22.47,7.82,46.14,46.14,0,0,1,9.08,9.53.32.32,0,0,0,.27.14.33.33,0,0,0,.27-.14,46.33,46.33,0,0,1,9.12-9.49,36,36,0,0,1,22.41-7.72h.08a38.48,38.48,0,0,1,28.6,12.54c6.95,7.57,10.91,17.75,11.28,28.85,0,.59,0,1.19,0,1.78,0,1,0,1.92-.1,2.86C216.67,120.34,216.66,120.45,216.65,120.57ZM96.25,161.83l-.27-.28a128.54,128.54,0,0,1-8.72-9.49,71.18,71.18,0,0,1-9.16-13.85l-.18-.38c-.06-.11-.11-.23-.16-.34A46.57,46.57,0,0,1,73.09,117c0-.87,0-1.73.07-2.58h-.67c0,.85-.07,1.72-.07,2.58a47.44,47.44,0,0,0,4.92,21.13l.17.35c.06.12.12.25.19.38a72.59,72.59,0,0,0,9,13.58c2.52,3.05,5.34,6.11,8.44,9.21l.29.3.29.28h0l.77-.16ZM98.49,164h0l.24.21C98.63,164.16,98.56,164.08,98.49,164Zm99.84-6.2-.73,0-.3.32-.76.78c-.15.16-.3.33-.47.49l1.3-.38.45-.48.35-.37.28-.3A.24.24,0,0,0,198.33,157.81ZM211.14,140l0-.37c-.09.18-.19.36-.29.54s-.17.33-.27.5a73.71,73.71,0,0,1-8.09,11.68c-.81,1-1.65,1.94-2.52,2.92l-.3.34-.3.33c.29,0,.59,0,.89,0l.29-.32.28-.33c.75-.83,1.47-1.67,2.17-2.51a76.53,76.53,0,0,0,7.79-11.12l.24-.42.25-.45A7.49,7.49,0,0,1,211.14,140ZM96,161.55a128.54,128.54,0,0,1-8.72-9.49,71.18,71.18,0,0,1-9.16-13.85l-.18-.38c-.06-.11-.11-.23-.16-.34A46.57,46.57,0,0,1,73.09,117c0-.87,0-1.73.07-2.58h-.67c0,.85-.07,1.72-.07,2.58a47.44,47.44,0,0,0,4.92,21.13l.17.35c.06.12.12.25.19.38a72.59,72.59,0,0,0,9,13.58c2.52,3.05,5.34,6.11,8.44,9.21l.29.3c.21,0,.48-.09.78-.16Zm102.35-3.74-.73,0-.3.32-.76.78c-.15.16-.3.33-.47.49l1.3-.38.45-.48.35-.37.28-.3A.24.24,0,0,0,198.33,157.81ZM211.14,140l0-.37c-.09.18-.19.36-.29.54s-.17.33-.27.5a73.71,73.71,0,0,1-8.09,11.68c-.81,1-1.65,1.94-2.52,2.92l-.3.34-.3.33c.29,0,.59,0,.89,0l.29-.32.28-.33c.75-.83,1.47-1.67,2.17-2.51a76.53,76.53,0,0,0,7.79-11.12l.24-.42.25-.45A7.49,7.49,0,0,1,211.14,140Z" transform="translate(-13.51 -19.44)"/><path class="cls-2" d="M111.78,133.87l-7.68-17.8Z" transform="translate(-13.51 -19.44)"/><path class="cls-2" d="M178.07,133.87l7.68-17.8Z" transform="translate(-13.51 -19.44)"/><path d="M136.55,153.19v44.42a.34.34,0,0,1-.67,0V153.19a19.13,19.13,0,0,0-5.73-13.6L121.32,131a.26.26,0,0,1-.07-.11l-5.41-12.78a8.46,8.46,0,0,0-7.8-5.17H104.8a.33.33,0,0,1-.33-.33v-14a7.72,7.72,0,0,0-4.07-6.81,2.95,2.95,0,0,0-4.34,2.59v39.48a9.45,9.45,0,0,0,2.59,6.51l13.8,14.6a6.37,6.37,0,0,1,1.75,4.41v19a.33.33,0,0,1-.33.33.3.3,0,0,1-.18-.06l-.06,0a.31.31,0,0,1-.09-.22v-19a5.75,5.75,0,0,0-1.57-4l-13.8-14.6a10.11,10.11,0,0,1-2.78-7V94.33a3.6,3.6,0,0,1,5.32-3.17,8.37,8.37,0,0,1,4.42,7.39v13.7H108a9.11,9.11,0,0,1,8.41,5.57l5.38,12.72,8.79,8.58A19.78,19.78,0,0,1,136.55,153.19Z" transform="translate(-13.51 -19.44)"/><path d="M111.91,134.18a.27.27,0,0,1-.13,0,.31.31,0,0,1-.3-.2l-7.68-17.8a.33.33,0,1,1,.6-.26l7.68,17.8A.33.33,0,0,1,111.91,134.18Z" transform="translate(-13.51 -19.44)"/><path d="M194.46,94.33v39.48a10.1,10.1,0,0,1-2.77,7l-13.81,14.6a5.75,5.75,0,0,0-1.57,4v19a.34.34,0,0,1-.09.24l-.05,0a.33.33,0,0,1-.19.06.34.34,0,0,1-.33-.34v-19a6.42,6.42,0,0,1,1.75-4.41l13.8-14.6a9.41,9.41,0,0,0,2.6-6.51V94.33a3,3,0,0,0-4.34-2.59,7.72,7.72,0,0,0-4.07,6.81v14a.34.34,0,0,1-.34.33h-3.24a8.46,8.46,0,0,0-7.8,5.17l-5.4,12.78a.44.44,0,0,1-.08.11l-8.83,8.62a19.13,19.13,0,0,0-5.73,13.6v44.17a.36.36,0,0,1-.08.23l-.07.06a.37.37,0,0,1-.18,0,.34.34,0,0,1-.33-.34V153.19a19.74,19.74,0,0,1,5.93-14.07l8.78-8.58,5.38-12.72a9.14,9.14,0,0,1,8.41-5.57h2.91V98.55a8.39,8.39,0,0,1,4.42-7.39,3.61,3.61,0,0,1,5.32,3.17Z" transform="translate(-13.51 -19.44)"/><path d="M178.07,134.21l-.13,0a.33.33,0,0,1-.17-.44l7.68-17.8a.33.33,0,0,1,.44-.17.33.33,0,0,1,.17.43L178.38,134A.34.34,0,0,1,178.07,134.21Z" transform="translate(-13.51 -19.44)"/><path class="cls-2" d="M240.46,126.23c3.18,2.45,4.55,9,4.75,14.24l-.67,13.05a5.51,5.51,0,0,1-4.78,5.68l-34.41,4.34-1-8.95L231.26,149a1.83,1.83,0,0,0,1.47-2l-1-9.49Z" transform="translate(-13.51 -19.44)"/><path class="cls-2" d="M204.37,156l-2.64-.3a16.78,16.78,0,0,0-3.4,0l-1.9.18a1.12,1.12,0,0,0-.74.37l0,0a1.11,1.11,0,0,0-.06,1.4,1.14,1.14,0,0,0,.86.46l1.85.07a.11.11,0,0,1,0,.21l-3.2.94a2.15,2.15,0,0,1-.91.07l-1.45-.19a2.4,2.4,0,0,0-2.64,1.42.74.74,0,0,0,.4.93h0l2,.71a12.89,12.89,0,0,0,6.37.54l6-1Z" transform="translate(-13.51 -19.44)"/><path d="M205.18,162a.21.21,0,0,1-.13,0l-.19,0-5.84,1a12.46,12.46,0,0,1-2.19.19,13.15,13.15,0,0,1-3.3-.42l-.72-.21-.33-.11-2-.7a1.09,1.09,0,0,1-.62-1.35,2.72,2.72,0,0,1,3-1.65l1.46.2a1.93,1.93,0,0,0,.76-.06l1.89-.56-.49,0a1.46,1.46,0,0,1-1-2.41l0,0a1.44,1.44,0,0,1,1-.48l1.9-.18a15,15,0,0,1,1.64-.07l.86,0c.33,0,.65.05,1,.09l2.38.27.25,0,.09,0a.33.33,0,0,1,.21.34.39.39,0,0,1-.14.24.44.44,0,0,1-.16.06h-.17l-2.53-.3c-.49-.05-1-.09-1.47-.1-.3,0-.6,0-.89,0s-.65,0-1,.06l-1.9.18a.77.77,0,0,0-.51.26l0,0a.78.78,0,0,0,0,1,.8.8,0,0,0,.6.33l1.12,0,.73,0a.24.24,0,0,1,.12,0,.41.41,0,0,1,.3.36.43.43,0,0,1-.31.47l-1.07.32-1.3.38-.83.24a2.44,2.44,0,0,1-1,.08l-1.46-.19a2.07,2.07,0,0,0-2.27,1.19.41.41,0,0,0,.2.52l2,.7c.21.08.43.15.65.21s.49.14.74.19a12.61,12.61,0,0,0,4.82.13l5.88-1,.15,0h0a.29.29,0,0,1,.16,0,.34.34,0,0,1,.2.25A.33.33,0,0,1,205.18,162Z" transform="translate(-13.51 -19.44)"/><path d="M205.35,163.87a.29.29,0,0,1-.2-.07.34.34,0,0,1-.13-.22l-1-9a.34.34,0,0,1,.27-.36l26.89-5.54a1.51,1.51,0,0,0,1.2-1.64V147l.74-7.28a.33.33,0,0,1,.36-.3.33.33,0,0,1,.3.36l-.74,7.26a2.16,2.16,0,0,1-1.73,2.32l-26.59,5.48.91,8.32,34.07-4.3a5.15,5.15,0,0,0,4.49-5.34l.53-10.41a38.7,38.7,0,0,0-.49-8.72,26.41,26.41,0,0,0-2.37-7.39.33.33,0,0,1,.14-.45.34.34,0,0,1,.45.15,26.9,26.9,0,0,1,2.43,7.58,38.76,38.76,0,0,1,.51,8.86l-.54,10.38a5.81,5.81,0,0,1-5.06,6l-34.42,4.34Z" transform="translate(-13.51 -19.44)"/><path class="cls-2" d="M229.16,107.09c-1.23.48-1.84.34-3.35-.45-2.93-1.53-4.11-4.84-4.95-3.36-.74,1.28-.46,2.21-2.34,3.69-.18.14-.11.44,0,.61l.8,1a1.68,1.68,0,0,1,.21,1,10,10,0,0,0-.08,2.73c.51.89,3.33,1.34,3.33,1.34l.32,5.86a3.1,3.1,0,0,1-.79,2.25l-.61.68s0,1.63,5,1.91a10,10,0,0,0,3.37-.55.56.56,0,0,0,.28-.87c-.84-1.13-2.83-4-2.25-10.85a.56.56,0,0,1,.33-.48c.72-.34,2.68-1.37,2.66-2.82S230.05,106.74,229.16,107.09Z" transform="translate(-13.51 -19.44)"/><path d="M229.73,121.2c0-.12-.11-.24-.17-.37l-.15-.35a18,18,0,0,1-.92-8.39.24.24,0,0,1,.14-.21c1.07-.5,2.87-1.58,2.85-3.12a2.14,2.14,0,0,0-.83-1.83,1.75,1.75,0,0,0-1.61-.15c-1.08.43-1.57.36-3.07-.43a11,11,0,0,1-3-2.52c-.72-.79-1.2-1.32-1.74-1.25a.92.92,0,0,0-.69.53,6.61,6.61,0,0,0-.51,1.17,4.49,4.49,0,0,1-1.75,2.42.68.68,0,0,0-.23.44.9.9,0,0,0,.22.65l.81,1a1.61,1.61,0,0,1,.13.74l0,.17a6.65,6.65,0,0,0,0,2.76c.49.85,2.49,1.3,3.3,1.45l.31,5.6a2.67,2.67,0,0,1-.35,1.49,1.79,1.79,0,0,1-.22.34,1.15,1.15,0,0,1-.14.17l-.14.16-.47.53a.32.32,0,0,0-.09.23c0,.19.2,1.94,5.34,2.23h.32a11,11,0,0,0,3.17-.57.89.89,0,0,0,.44-1.39A10,10,0,0,1,229.73,121.2Zm.44,2.12a.24.24,0,0,1-.14.15,10,10,0,0,1-3.25.53c-3.76-.21-4.52-1.18-4.68-1.49l.5-.55a2,2,0,0,0,.25-.33,2.39,2.39,0,0,0,.21-.34,2.26,2.26,0,0,0,.17-.35,3.35,3.35,0,0,0,.24-1.47l-.32-5.86a.35.35,0,0,0-.28-.31c-1.1-.18-2.8-.66-3.09-1.17a12.68,12.68,0,0,1,.1-2.37l0-.16a2,2,0,0,0-.28-1.24l-.81-1a.48.48,0,0,1-.07-.15,5.08,5.08,0,0,0,1.94-2.7,6.13,6.13,0,0,1,.47-1.07c.08-.14.14-.2.18-.2.21,0,.75.57,1.18,1a11.78,11.78,0,0,0,3.15,2.66c1.57.82,2.28,1,3.62.46a1.06,1.06,0,0,1,1,.08,1.52,1.52,0,0,1,.54,1.28c0,1.22-1.73,2.17-2.47,2.52a.93.93,0,0,0-.53.75,19.31,19.31,0,0,0,.84,8.36c.05.12.09.24.13.35a3.73,3.73,0,0,0,.16.35,9.62,9.62,0,0,0,1.19,2A.22.22,0,0,1,230.17,123.32Z" transform="translate(-13.51 -19.44)"/><path class="cls-2" d="M93.48,167.62s5.41.64,6.67,1.49,5.57,2.86,4.76,1.34S98.47,164,98.47,164s2.31-.67,1.89-2-3.87-.12-5,0a5.57,5.57,0,0,0-2.23.91S91,166.84,93.48,167.62Z" transform="translate(-13.51 -19.44)"/><path d="M96.25,161.83c-.3.07-.57.13-.78.16h-.11l-.14,0-.13,0h0l-.2.05-.16,0-.2.07-.19.07-.19.08-.17.07-.16.08-.23.13-.09.05-.08,0-.29.19.14.47.12-.24.13-.09a5,5,0,0,1,1.88-.72l.36-.06h0l.77-.16Zm0,0c-.3.07-.57.13-.78.16h-.11l-.14,0-.13,0h0l-.2.05-.16,0-.2.07-.19.07-.19.08-.17.07-.16.08-.23.13-.09.05-.08,0-.29.19.14.47.12-.24.13-.09a5,5,0,0,1,1.88-.72l.36-.06h0l.77-.16Zm-.78.16h-.11l-.14,0-.13,0h0l-.2.05-.16,0-.2.07-.19.07-.19.08-.17.07-.16.08-.23.13-.09.05-.08,0-.29.19.14.47.12-.24.13-.09a5,5,0,0,1,1.88-.72l.36-.06Zm9.73,8.31s0,0,0-.05c-.77-1.36-4.75-4.95-6.06-6.11a3.17,3.17,0,0,0,1.47-1.17,1.38,1.38,0,0,0,.1-1.07c-.42-1.32-2.66-.81-4.3-.44l-.4.09q-.41.09-.66.12l-.14,0a5.45,5.45,0,0,0-1.85.71l-.3.18-.09.06a.35.35,0,0,0-.1.11l-.06.12c-.26.52-1.21,2.57-.65,3.95a1.88,1.88,0,0,0,1.25,1.12h.06l.83.11.36.05.37,0a19,19,0,0,1,5,1.22c.35.23,3.34,1.93,4.7,1.93a.77.77,0,0,0,.51-.14v0C105.31,171,105.45,170.77,105.2,170.3Zm-.55.37a14.13,14.13,0,0,1-4.32-1.84c-.92-.62-3.83-1.12-5.54-1.37h0l-.36-.05-.36,0-.52-.07a1.21,1.21,0,0,1-.8-.72,4.13,4.13,0,0,1,.31-2.71l.21-.47h0l.12-.24.13-.09a5,5,0,0,1,1.88-.72l.36-.06h0l.77-.16h0c1.15-.26,3.28-.75,3.51,0a.68.68,0,0,1-.05.56,3.08,3.08,0,0,1-1.61,1,.39.39,0,0,0-.14.08.32.32,0,0,0-.1.17.35.35,0,0,0,.11.32c1.93,1.69,5.75,5.18,6.37,6.34l0,0ZM95.47,162h-.11l-.14,0-.13,0h0l-.2.05-.16,0-.2.07-.19.07-.19.08-.17.07-.16.08-.23.13-.09.05-.08,0-.29.19.14.47.12-.24.13-.09a5,5,0,0,1,1.88-.72l.36-.06Zm.78-.16c-.3.07-.57.13-.78.16h-.11l-.14,0-.13,0h0l-.2.05-.16,0-.2.07-.19.07-.19.08-.17.07-.16.08-.23.13-.09.05-.08,0-.29.19.14.47.12-.24.13-.09a5,5,0,0,1,1.88-.72l.36-.06h0l.77-.16Z" transform="translate(-13.51 -19.44)"/><path class="cls-2" d="M37.44,135.68s9.4,47.73,57.65,34L93,162.44s-30.43,2.27-38.59-29.71C54.4,132.73,48,121.48,37.44,135.68Z" transform="translate(-13.51 -19.44)"/><path d="M78.66,172.49A38.86,38.86,0,0,1,58,166.93c-16.57-10.15-20.85-31-20.89-31.18a.33.33,0,0,1,.26-.39.32.32,0,0,1,.39.26c0,.21,4.27,20.75,20.59,30.75,9.86,6,22.08,7.06,36.33,3.07l-1.93-6.66a40.52,40.52,0,0,1-11.5-1.38A36.3,36.3,0,0,1,60.5,147.22a.33.33,0,0,1,.08-.46.33.33,0,0,1,.46.08C72.68,163.41,92.77,162.12,93,162.11a.31.31,0,0,1,.34.24l2.1,7.23a.35.35,0,0,1,0,.25.32.32,0,0,1-.2.16A60.3,60.3,0,0,1,78.66,172.49Z" transform="translate(-13.51 -19.44)"/><g class="cls-3"><path d="M154.75,285.72l-.09,0a.33.33,0,0,1-.23-.23,120.37,120.37,0,0,1-3.22-23.4c-.56-12.5.5-30.9,8.74-47.5.38-.78,1.65-.47,3-.15.79.19,2.11.51,2.29.21.3-.54-.19-2-.62-3.3-.54-1.63-1-3.18-.53-4a66.9,66.9,0,0,1,12-13.79.34.34,0,0,1,.29-.07.37.37,0,0,1,.24.2,86.59,86.59,0,0,1,5.12,28.73c0,.76-1,1.54-2.72,2.75-1.06.75-2.5,1.77-2.52,2.27s1.4.75,2.25,1c1.46.41,2.84.8,2.77,1.73C180,251.36,171,270,155,285.62A.34.34,0,0,1,154.75,285.72Zm6.19-71c-.21,0-.35,0-.39.12-8.18,16.48-9.23,34.76-8.68,47.18a123.53,123.53,0,0,0,3.06,22.7c15.67-15.4,24.38-33.78,25.9-54.63,0-.38-1.43-.79-2.29-1-1.48-.41-2.76-.78-2.73-1.65s1.31-1.74,2.79-2.79c1-.74,2.46-1.74,2.45-2.2a87.35,87.35,0,0,0-4.91-28.05,66,66,0,0,0-11.51,13.33c-.35.54.16,2.07.6,3.41.52,1.57,1,3,.57,3.83s-1.68.44-3,.12A10.08,10.08,0,0,0,160.94,214.74Z" transform="translate(-13.51 -19.44)"/><path d="M131.06,292.47a.32.32,0,0,1-.29-.17c-10.86-19.27-16.44-37.43-17.06-55.51,0-1,1.35-1.55,2.81-2.17,1.08-.45,2.43-1,2.44-1.55s-1.49-1.84-2.58-2.81c-1.81-1.6-2.9-2.63-2.86-3.43a89.18,89.18,0,0,1,5.57-26.36.33.33,0,0,1,.23-.2.36.36,0,0,1,.3.06c.14.12,14.12,11.72,25,32.32.33.63-.22,2.14-1.16,4.56-.56,1.44-1.41,3.63-1.2,4s1.82-.18,2.62-.41c1.65-.48,3.07-.89,3.46,0a102.8,102.8,0,0,1,9.24,45,.34.34,0,0,1-.22.3,119.43,119.43,0,0,1-26.24,6.39Zm-11.51-91.32a88.09,88.09,0,0,0-5.36,25.72c0,.53,1.51,1.9,2.63,2.89,1.75,1.55,2.81,2.55,2.8,3.32,0,1-1.39,1.54-2.84,2.16-1.08.45-2.42,1-2.41,1.53.62,17.91,6.14,35.9,16.87,55a119,119,0,0,0,25.65-6.24,101.93,101.93,0,0,0-9.18-44.46c-.15-.32-1.79.15-2.67.41-1.61.47-3,.87-3.4.07s.24-2.17,1.18-4.59c.56-1.44,1.4-3.61,1.19-4A115.5,115.5,0,0,0,119.55,201.15Z" transform="translate(-13.51 -19.44)"/><path d="M143.82,282.48a.32.32,0,0,1-.3-.21c-2.7-6.69-5.25-13.56-7.59-20.39a.33.33,0,0,1,.2-.42.34.34,0,0,1,.43.2c2.34,6.83,4.88,13.68,7.57,20.37a.33.33,0,0,1-.18.43A.27.27,0,0,1,143.82,282.48Z" transform="translate(-13.51 -19.44)"/><path d="M133,252.31a.34.34,0,0,1-.32-.23c-3.66-11.62-6.86-23.54-9.49-35.44L122,211.2a.33.33,0,0,1,.65-.14l1.21,5.44c2.63,11.88,5.82,23.78,9.48,35.38a.35.35,0,0,1-.22.42Z" transform="translate(-13.51 -19.44)"/><path d="M153.32,287.45a.37.37,0,0,1-.2-.07.37.37,0,0,1-.13-.27A53.72,53.72,0,0,1,158.37,267a42.94,42.94,0,0,1,12-15c6.24-4.85,14-7.91,23-9.09a.35.35,0,0,1,.28.09.36.36,0,0,1,.1.28,53.51,53.51,0,0,1-6.51,18c-5.05,8.84-15,20.55-33.83,26.12ZM193,243.62C173.22,246.37,163.57,258,159,267.25a53.38,53.38,0,0,0-5.29,19.41c18.31-5.56,28-17,33-25.68A53.7,53.7,0,0,0,193,243.62Z" transform="translate(-13.51 -19.44)"/><path d="M162.05,278.59a.35.35,0,0,1-.17,0,.33.33,0,0,1-.11-.46c6.71-11,23.64-26.72,23.81-26.88a.33.33,0,0,1,.47,0,.32.32,0,0,1,0,.47c-.17.16-17,15.79-23.69,26.73A.32.32,0,0,1,162.05,278.59Z" transform="translate(-13.51 -19.44)"/></g><path d="M135.55,21.76c-2.12-1.23-4.37-2.27-4.39-2.29a.35.35,0,0,0-.48.3l0,5.22a.32.32,0,0,0,.18.29.27.27,0,0,0,.16,0,.31.31,0,0,0,.18-.05l4.4-2.95a.32.32,0,0,0,.15-.28A.35.35,0,0,0,135.55,21.76Zm-4.23,2.61,0-4.07c.68.33,2,1,3.41,1.77Z" transform="translate(-13.51 -19.44)"/><path d="M45.15,84A.4.4,0,0,1,45,84a.33.33,0,0,1-.15-.44c1.19-2.47,2.5-4.93,3.88-7.31A108.55,108.55,0,0,1,82.26,40.56,122.69,122.69,0,0,1,127.86,22a.33.33,0,0,1,.39.26.34.34,0,0,1-.27.39C93.6,29.32,65.66,48.45,49.31,76.58c-1.38,2.36-2.68,4.8-3.86,7.26A.35.35,0,0,1,45.15,84Z" transform="translate(-13.51 -19.44)"/><path d="M56.22,77.84a.34.34,0,0,1-.17,0,.33.33,0,0,1-.12-.45C64.8,62,85,44.29,103.93,35.27a.35.35,0,0,1,.44.16.34.34,0,0,1-.16.45c-18.83,9-38.9,26.54-47.7,41.79A.35.35,0,0,1,56.22,77.84Z" transform="translate(-13.51 -19.44)"/><path d="M43.41,86.87a2.23,2.23,0,1,0-1.67,3.77h.06a2.23,2.23,0,0,0,1.61-3.77ZM41.76,90a1.57,1.57,0,0,1,0-3.13h0a1.57,1.57,0,0,1,1.1.48,1.55,1.55,0,0,1,.43,1.12A1.58,1.58,0,0,1,41.76,90Z" transform="translate(-13.51 -19.44)"/><path d="M161.3,27.11a.35.35,0,0,1-.19-.06l-1.84-1.31a.34.34,0,0,1-.08-.47.33.33,0,0,1,.46-.08l1.85,1.32a.33.33,0,0,1,.08.46A.35.35,0,0,1,161.3,27.11Z" transform="translate(-13.51 -19.44)"/><path d="M154.84,22.52a.35.35,0,0,1-.19-.06l-1.84-1.32a.32.32,0,0,1-.08-.46.33.33,0,0,1,.46-.08L155,21.91a.35.35,0,0,1,.08.47A.35.35,0,0,1,154.84,22.52Z" transform="translate(-13.51 -19.44)"/><path d="M158.8,21.91a.31.31,0,0,1-.2-.07.33.33,0,0,1-.07-.46l1.32-1.8a.33.33,0,0,1,.54.39l-1.32,1.8A.35.35,0,0,1,158.8,21.91Z" transform="translate(-13.51 -19.44)"/><path d="M154.18,28.21a.28.28,0,0,1-.19-.07.32.32,0,0,1-.07-.46l1.31-1.8a.34.34,0,0,1,.47-.07.32.32,0,0,1,.07.46l-1.32,1.8A.32.32,0,0,1,154.18,28.21Z" transform="translate(-13.51 -19.44)"/><path d="M269.45,198a.28.28,0,0,1-.19-.07l-1.85-1.31a.33.33,0,0,1-.08-.46.34.34,0,0,1,.47-.08l1.84,1.31a.34.34,0,0,1,.08.47A.33.33,0,0,1,269.45,198Z" transform="translate(-13.51 -19.44)"/><path d="M263,193.39a.33.33,0,0,1-.19-.06L261,192a.33.33,0,0,1-.08-.46.34.34,0,0,1,.47-.08l1.84,1.31a.33.33,0,0,1,.08.46A.31.31,0,0,1,263,193.39Z" transform="translate(-13.51 -19.44)"/><path d="M267,192.79a.37.37,0,0,1-.2-.07.32.32,0,0,1-.07-.46l1.32-1.8a.33.33,0,1,1,.53.39l-1.32,1.8A.31.31,0,0,1,267,192.79Z" transform="translate(-13.51 -19.44)"/><path d="M262.33,199.08a.36.36,0,0,1-.2-.06.34.34,0,0,1-.07-.47l1.32-1.8a.33.33,0,0,1,.46-.07.35.35,0,0,1,.08.47L262.6,199A.34.34,0,0,1,262.33,199.08Z" transform="translate(-13.51 -19.44)"/><path d="M273.1,170.61a2.53,2.53,0,1,0-2.5,2.92,1.72,1.72,0,0,0,.39,0,2.52,2.52,0,0,0,2.11-2.88Zm-1,1.49a1.89,1.89,0,0,1-1.22.74,1.83,1.83,0,0,1-1.38-.34,1.86,1.86,0,0,1,2.19-3,1.89,1.89,0,0,1,.74,1.22A1.86,1.86,0,0,1,272.11,172.1Z" transform="translate(-13.51 -19.44)"/></g></g></svg>