<svg id="Camada_1" data-name="Camada 1" xmlns="http://www.w3.org/2000/svg" xmlns:xlink="http://www.w3.org/1999/xlink" viewBox="0 0 300 300"><defs><style>.cls-1{fill:url(#Laranja_Amarelo);}.cls-2{fill:#008d36;}.cls-3{fill:#00ab37;}</style><linearGradient id="Laranja_Amarelo" x1="12.26" y1="147.69" x2="144.19" y2="147.69" gradientUnits="userSpaceOnUse"><stop offset="0" stop-color="#ffef26"/><stop offset="0.02" stop-color="#ffea21"/><stop offset="0.1" stop-color="#fed70f"/><stop offset="0.19" stop-color="#fdcc04"/><stop offset="0.28" stop-color="#fdc800"/><stop offset="0.67" stop-color="#f18f34"/><stop offset="0.89" stop-color="#e95f32"/><stop offset="1" stop-color="#e3312d"/></linearGradient></defs><path class="cls-1" d="M43.14,127.92c-2.49-2.06-1.81-4.62.69-7.12a21.35,21.35,0,0,0,3.4-3.71,5.6,5.6,0,0,0,.88-2.18,13.07,13.07,0,0,1,.27-2.72,4.16,4.16,0,0,1,1.34-1.72c2.1-1.77,5-2.45,7.55-3.42,4.07-1.59,8.2-3,12.37-4.29,2.81-.87,5.77-1.51,8.64-2.3s5.91-1.57,8.25-3.32a20.77,20.77,0,0,0,2.74-2.65c.23-.25,1,2.11,1,2.28a5.53,5.53,0,0,1-.42,2.6c-.62,1.47-1.71,2.67-2.43,4.09l27.88,7.14C111.9,100.14,105,93.3,95.65,88.65c-9.13-4.54-18.92-6-29-5.91,23.86-4,44.77,1.79,61.08,20,14.31,16,19.16,35,15.07,56.32-3.71-11.59-9.29-22-18.16-30.4s-25.24-14.91-37.52-17.21c7.68,2.52,18.73,9.24,24.28,13.77,10.58,8.63,18.07,19.52,21.15,33,3.8,16.69-1.57,30.49-14.57,40.92-19.52,15.67-41.64,18.66-64.74,9.72-22.28-8.63-35.35-25.55-39.92-49-2.86-14.64.23-28.13,7.83-40.77,1.63-2.7,3.26-5.4,4.73-8.18C29,105,30.79,99,26.38,91.73a17,17,0,0,1,9.48,10.94,21.65,21.65,0,0,1-2.78,19.69c-1.38,2-2.62,4.11-3.81,6.23-4,7.06-5.95,14.12,1.52,21.81-6.91-1.48-10.39-5-12.6-10.3C11.65,156,30.36,184,49.14,185.45c-8.89-8.36-14.69-17.52-15-30.08,2.32,3.62,4.06,6.83,6.25,9.68,6.68,8.67,15.4,13.33,26.5,11.88,10.74-1.4,18.73-7.1,22.87-17.24,3.71-9.08,1.77-17.69-3.64-25.85,10.63,3.72,18.34,17.43,17.61,31.17-.62,11.87-6.38,20.91-15.88,27.68-9.17,6.55-19.69,8.48-30.89,7.82,0,.47,0-.47,0,0a49.38,49.38,0,0,0,8.9,1.34c13.59,1,25.42-2.37,35.5-11.48,11.88-10.75,13.73-29.33,5-45.19-10.08-18.4-33.5-28.4-53.76-22.64C49.47,123.45,46.72,125.85,43.14,127.92Z"/><path d="M190,124.8c0,14.79-9.52,22.89-23.29,22.89H150.46V102.26H166.8C180.37,102.26,190,110,190,124.8Zm-4.18,0c.13-12.42-8.1-18.9-19.11-18.9H154.45V144h12.28C177.74,144,185.63,137.29,185.84,124.8Z"/><path d="M195.28,124.8c0-14.51,10.67-23.42,23.29-23.42s23.29,8.91,23.29,23.42-10.6,23.7-23.29,23.7S195.28,139.25,195.28,124.8Zm42.4,0c-.14-12.35-9-19.44-19.11-19.44s-18.9,7.09-19.1,19.44c.2,12.63,9,19.72,19.1,19.72S237.54,137.43,237.68,124.8Z"/><path d="M254.75,106V124.2h17.08v3.3H254.75V144h19.51v3.65H250.84V102.32h23.42V106Z"/><path class="cls-2" d="M161.41,180.35a26,26,0,0,0,3.81.29,15.51,15.51,0,0,0,8.47-2.16q4.89-3.76,4.89-10.57t-4.1-9.65q-4.11-2.81-12.66-2.8-6,0-7.55.17v46.75a3.92,3.92,0,0,1-.5,2.2,1.41,1.41,0,0,1-1.16.75,1.43,1.43,0,0,1-1.2-.75,4,4,0,0,1-.5-2.2V158.2c0-2.71.19-4.42.58-5.13a2.34,2.34,0,0,1,2.24-1h8.34q10.5,0,15.12,4t4.63,11.93q0,8-5.44,12.77-4.23,3.16-11.28,3.16c-1,0-2.09-.06-3.2-.17h-1.45a4.11,4.11,0,0,1-2.22-.48,1.36,1.36,0,0,1-.72-1.14,1.42,1.42,0,0,1,.72-1.22,4.11,4.11,0,0,1,2.22-.48Z"/><path class="cls-2" d="M186,155a4,4,0,0,1,.49-2.22,1.41,1.41,0,0,1,1.12-.72,1.43,1.43,0,0,1,1.23.72,4.11,4.11,0,0,1,.48,2.22v47.42a4,4,0,0,1-.48,2.18,1.44,1.44,0,0,1-1.23.73,1.42,1.42,0,0,1-1.12-.73,3.89,3.89,0,0,1-.49-2.18Z"/><path class="cls-2" d="M206.75,183.5a4.91,4.91,0,0,1,1.83-1.41,2.2,2.2,0,0,1,.66-.12,1,1,0,0,1,.62.17,1.6,1.6,0,0,1,.5,1.2s0,.25,0,.58a4,4,0,0,1-.95,1.62l-12.29,18.21a3.88,3.88,0,0,1-1.78,1.49,2,2,0,0,1-.58.09,1.58,1.58,0,0,1-.87-.25,1.37,1.37,0,0,1-.42-1.08c0-.08,0-.29,0-.62a4,4,0,0,1,.91-1.66Zm-12.28-28.37a4.26,4.26,0,0,1-.79-2.12,1.42,1.42,0,0,1,.46-1.24,1.37,1.37,0,0,1,.75-.21,2.8,2.8,0,0,1,1,.23,3.78,3.78,0,0,1,1.41,1.47l33,48.46a4,4,0,0,1,.83,2.11,1.52,1.52,0,0,1-.58,1.33,1.23,1.23,0,0,1-.62.17,3,3,0,0,1-1-.25,4,4,0,0,1-1.46-1.5Zm34.1-1.79a4.5,4.5,0,0,1,1.79-1.45,2.29,2.29,0,0,1,.7-.12,1,1,0,0,1,.58.16,1.72,1.72,0,0,1,.5,1.25s0,.24,0,.56a4.28,4.28,0,0,1-.91,1.64l-12.28,18.21a4.23,4.23,0,0,1-1.83,1.45,1.93,1.93,0,0,1-.58.08,1.73,1.73,0,0,1-.87-.24,1.26,1.26,0,0,1-.42-1c0-.09,0-.3,0-.65a3.66,3.66,0,0,1,1-1.63Z"/><path d="M236.32,204.68a.86.86,0,1,1,1.71,0,.86.86,0,0,1-1.71,0Z"/><path d="M239.34,200a5.24,5.24,0,0,1,5.41-5.49,5.44,5.44,0,0,1,4.36,2l-.57.82a4.57,4.57,0,0,0-3.78-1.85,4.59,4.59,0,0,0,0,9.17,4.64,4.64,0,0,0,3.66-1.63l.58.76a5.73,5.73,0,0,1-4.28,1.82C241.55,205.53,239.34,203.38,239.34,200Z"/><path d="M250.28,200a5.46,5.46,0,1,1,5.46,5.55A5.34,5.34,0,0,1,250.28,200Zm9.93,0a4.48,4.48,0,1,0-4.47,4.61A4.36,4.36,0,0,0,260.21,200Z"/><path d="M273.48,194.64v10.69h-.92v-8.45l-4.11,6.37h-.12l-4.1-6.32v8.4h-.93V194.64h.44l4.64,7.1,4.66-7.1Z"/><path class="cls-3" d="M66.87,139.44c-3.63,1.8-6.49,3.06-7.12,3.33l0,0h0a28.42,28.42,0,0,1,6-5.13c5.72-3.58-.39-10.32-3.69-5.82-1.55-5.24-8.78-2.3-5.75,3.8,1.81,3.65,3.07,6.53,3.34,7.13l0,0a0,0,0,0,0,0,0,28.44,28.44,0,0,1-5.13-6c-3.59-5.72-10.32.39-5.82,3.69-5.24,1.55-2.3,8.78,3.8,5.75,3.65-1.81,6.52-3.07,7.13-3.34a.05.05,0,0,0,0,0v0a28.78,28.78,0,0,1-6,5.12c-5.72,3.59.39,10.32,3.69,5.82,1.55,5.24,8.77,2.3,5.75-3.8-1.6-3.22-2.76-5.82-3.2-6.81a24,24,0,0,1,3.32,5.23,56.55,56.55,0,0,1,2.42,6.23A30.92,30.92,0,0,0,68.17,161a20.87,20.87,0,0,0,4.32,5.36h0a.66.66,0,1,0,.84-1,19.83,19.83,0,0,1-4.27-4.9,23.75,23.75,0,0,1-1.54-2.91c-.46-1-.83-2-1.23-3.1a56.62,56.62,0,0,0-2.69-6.2,26.27,26.27,0,0,0-3-4.52,28.84,28.84,0,0,1,4.23,5.14c3.58,5.72,10.32-.39,5.82-3.69C75.91,143.64,73,136.42,66.87,139.44Z"/></svg>